<?xml version="1.0" encoding="UTF-8" standalone="no"?>
<!DOCTYPE svg PUBLIC "-//W3C//DTD SVG 1.1//EN" "http://www.w3.org/Graphics/SVG/1.1/DTD/svg11.dtd">
<svg xmlns="http://www.w3.org/2000/svg" version="1.1" viewBox="0 0 1024 1024" width="1024.0pt" height="1024.0pt">
<path d="M 590.63 35.32 C 589.54 38.32 586.85 39.34 585.26 42.13 C 584.50 43.82 582.75 44.53 581.91 46.08 C 581.25 48.56 578.95 49.65 577.98 52.00 C 574.69 57.07 571.35 62.08 568.28 67.30 C 564.49 72.75 562.07 78.85 558.66 84.52 C 555.32 92.66 551.49 100.52 548.73 108.90 C 545.34 118.93 542.09 128.87 540.22 139.15 C 539.82 141.18 538.91 143.09 538.56 145.11 C 537.93 151.81 536.54 158.30 535.88 164.99 C 534.50 177.29 534.06 189.62 534.32 202.00 C 534.43 209.92 534.26 218.00 535.23 225.86 C 536.01 244.80 538.24 263.69 533.59 282.47 C 531.90 293.42 527.71 304.01 522.95 313.95 C 522.26 314.04 521.77 313.50 521.46 312.35 C 521.04 312.59 520.68 312.88 520.38 313.23 C 519.84 315.90 521.68 317.58 519.97 319.97 C 517.14 324.81 514.62 329.90 511.38 334.47 C 509.88 335.88 508.63 338.27 506.55 338.69 C 506.68 339.41 506.77 340.14 506.83 340.87 C 504.76 344.77 502.01 347.75 499.40 351.43 C 494.97 357.05 490.77 362.66 486.14 368.11 C 482.20 371.92 480.38 376.61 475.97 379.93 C 475.07 379.69 474.16 379.46 473.26 379.25 C 472.54 381.29 474.92 380.46 474.78 381.92 C 474.32 382.95 472.81 383.16 472.38 384.18 C 470.63 387.76 468.13 390.53 465.82 393.84 C 459.68 401.95 454.48 410.62 449.50 419.47 C 446.63 425.53 443.59 431.50 440.63 437.51 C 436.65 446.18 433.29 455.08 429.97 464.02 C 426.31 474.56 422.66 484.94 420.82 495.99 C 420.36 498.97 420.90 501.70 419.70 504.51 C 419.48 510.35 419.11 516.04 419.29 522.00 C 419.36 523.89 418.81 525.77 418.59 527.66 C 416.94 527.87 416.78 526.13 415.83 525.10 C 409.97 517.83 404.51 510.09 400.27 501.76 C 398.46 498.52 395.47 494.38 394.84 490.84 C 397.29 490.54 395.95 490.01 396.40 488.19 C 395.13 488.73 395.69 490.24 394.05 490.24 C 387.84 477.56 383.07 464.05 381.12 450.01 C 378.51 440.16 378.39 430.11 379.20 420.00 C 379.44 416.85 379.17 413.43 380.35 410.53 C 381.01 404.55 382.33 398.74 384.08 392.99 C 386.54 385.09 389.24 376.96 393.03 369.60 C 395.08 369.57 393.73 371.74 395.56 371.55 C 395.50 369.91 393.97 369.60 393.31 368.11 C 394.42 365.01 396.17 362.23 397.31 359.14 C 402.35 347.59 408.93 336.47 416.19 326.18 L 417.01 326.11 C 417.15 327.48 417.67 328.02 418.57 327.71 C 418.70 326.37 419.23 325.30 419.71 324.07 C 419.45 323.40 419.19 322.74 418.93 322.07 C 422.77 315.35 427.69 309.53 432.56 303.55 C 434.13 301.68 435.05 299.59 437.31 298.42 C 437.68 297.12 438.01 295.98 439.04 295.03 C 442.01 292.07 443.88 287.76 447.30 285.37 C 448.52 282.17 450.94 279.52 452.64 276.56 C 453.39 276.40 454.14 276.21 454.88 276.00 C 455.80 271.86 457.42 269.31 459.97 265.97 C 464.77 258.29 470.03 249.19 474.13 241.09 C 484.84 220.82 490.60 198.27 496.18 176.13 C 497.32 171.64 497.71 166.85 499.31 162.50 C 499.92 159.03 500.32 155.44 501.42 152.10 C 501.62 150.88 502.57 150.40 503.39 149.62 C 503.07 149.09 502.75 148.57 502.43 148.04 C 504.15 145.78 502.63 142.71 504.08 140.11 C 506.02 131.29 509.31 123.13 512.70 114.80 C 517.49 103.57 524.23 93.41 532.13 84.13 C 535.34 80.30 538.41 76.49 542.19 73.18 C 548.55 66.81 556.47 62.12 562.94 55.89 C 570.22 49.67 577.14 43.27 585.44 38.39 C 587.40 36.97 587.82 35.13 590.63 35.32 Z" fill="#f55d3c" />
<path d="M 656.14 50.01 C 657.18 54.37 654.84 56.86 654.18 60.98 C 651.33 72.13 646.68 82.94 640.92 92.91 C 639.43 92.62 637.93 92.52 636.41 92.47 L 636.27 93.71 C 637.23 93.64 638.77 92.68 639.54 93.43 C 640.43 93.99 640.50 94.81 639.77 95.89 C 637.48 99.39 635.86 103.95 632.61 106.61 C 629.74 114.31 624.46 120.89 620.37 128.47 C 617.83 132.44 616.04 136.76 613.83 140.90 C 612.44 143.92 611.74 147.00 609.78 149.77 C 607.61 156.89 605.47 163.45 605.17 171.01 C 603.86 176.32 604.99 181.72 603.70 186.99 C 603.60 189.66 603.67 192.34 603.83 195.01 C 604.86 200.88 604.52 206.70 606.31 212.51 C 606.57 218.70 606.90 225.10 608.44 231.10 C 608.11 236.76 610.48 242.85 608.77 248.41 C 610.28 252.69 608.30 258.37 608.54 263.00 C 608.78 266.97 607.29 270.30 606.55 274.11 C 606.29 278.26 605.41 282.39 604.56 286.46 C 604.05 289.58 604.76 292.94 604.00 296.00 C 603.38 298.22 603.46 300.38 603.47 302.66 C 604.86 302.67 604.88 301.52 605.66 300.60 C 607.15 298.70 608.51 296.88 610.72 295.78 C 611.24 293.11 612.79 291.48 614.46 289.47 C 620.61 279.01 627.91 268.79 634.35 258.38 C 642.68 246.32 648.88 233.13 657.03 221.01 C 659.10 219.06 660.00 216.52 661.60 214.29 C 661.57 215.64 661.09 216.70 660.61 217.94 C 660.54 220.23 660.71 222.39 659.70 224.52 C 659.37 226.75 659.68 228.84 658.70 230.99 C 658.87 234.74 657.90 238.23 656.64 241.73 C 655.14 250.75 652.68 259.87 651.41 268.88 C 649.87 272.77 649.36 276.98 647.86 280.97 C 647.54 283.88 647.09 285.90 645.60 288.46 C 645.25 293.66 642.38 298.33 641.30 303.45 C 639.63 305.86 639.73 308.71 638.21 311.17 C 635.10 319.36 631.15 327.37 627.35 335.28 C 624.78 341.50 621.74 347.43 618.15 353.12 C 616.97 354.49 615.48 355.08 614.84 356.85 C 613.34 360.71 610.85 364.08 608.09 367.13 C 604.86 372.15 600.58 376.58 596.29 380.73 C 600.31 379.85 604.15 375.73 607.49 373.56 C 610.06 372.18 612.51 370.66 614.65 368.66 C 619.63 364.07 624.91 359.45 629.31 354.33 C 631.79 350.88 634.87 348.02 637.57 344.80 C 640.26 339.84 643.86 335.55 646.71 330.68 C 648.78 328.00 649.97 324.63 652.05 322.07 C 652.90 322.22 653.74 322.38 654.59 322.55 C 654.84 320.58 652.63 322.26 652.86 320.00 C 656.52 313.58 658.55 306.59 661.53 299.86 C 662.70 296.26 663.79 292.65 665.12 289.11 C 665.54 288.09 666.64 287.38 667.42 286.61 C 667.10 286.07 666.78 285.53 666.46 284.99 C 666.61 284.09 667.28 283.60 668.48 283.51 C 668.23 283.02 667.99 282.52 667.73 282.03 C 668.59 276.22 672.09 270.82 673.13 264.99 C 675.22 258.66 676.70 252.21 679.16 245.98 C 680.13 240.14 682.30 234.80 684.33 229.13 C 686.85 222.88 688.68 216.67 691.74 210.81 C 693.65 205.43 696.46 200.53 698.25 195.12 C 701.76 188.22 704.85 181.59 709.15 174.95 C 710.17 174.23 711.92 174.60 712.59 173.57 C 709.46 172.90 711.93 170.40 712.92 168.97 C 715.42 163.92 719.04 159.79 722.11 155.10 C 722.93 155.23 723.75 155.36 724.56 155.49 C 724.91 155.19 725.25 154.89 725.58 154.59 C 724.21 154.44 723.69 153.81 724.03 152.70 C 724.79 152.66 725.53 152.60 726.28 152.53 C 725.83 152.05 725.43 151.60 725.06 151.17 C 725.90 149.41 726.72 149.27 728.54 149.58 C 728.27 149.06 727.99 148.54 727.70 148.02 C 728.90 145.50 731.29 143.73 732.95 141.47 C 734.43 141.26 735.19 142.56 736.63 142.72 C 735.87 141.80 734.97 141.05 734.34 140.03 C 736.54 136.78 739.68 134.28 742.14 131.19 C 742.61 131.29 743.08 131.37 743.56 131.45 C 743.22 129.49 744.27 128.75 745.48 127.48 C 747.80 124.59 751.02 124.20 752.60 120.57 C 758.80 114.33 765.77 108.63 772.79 103.34 C 772.07 106.89 769.01 110.23 766.98 113.17 C 766.17 113.36 765.35 113.49 764.51 113.54 C 764.32 115.39 762.87 116.38 762.32 118.10 C 761.81 119.64 760.81 119.91 759.51 120.62 C 759.36 122.33 759.40 123.55 760.37 125.03 C 751.46 140.09 744.20 156.27 739.01 172.99 C 733.90 188.48 731.38 204.95 730.25 221.15 C 729.11 224.74 729.59 228.34 728.97 232.00 C 728.17 236.60 729.04 241.53 727.67 245.98 C 727.27 248.67 727.96 251.63 726.74 254.00 C 725.86 259.29 727.22 264.81 725.68 269.99 C 725.52 282.40 722.24 294.88 719.76 307.01 C 719.23 311.27 717.24 315.05 717.36 319.51 C 714.44 328.65 712.50 336.83 708.57 345.85 C 706.08 351.43 704.19 357.57 700.64 362.58 C 699.36 366.41 697.11 369.59 695.10 373.04 C 691.09 378.91 688.15 385.01 683.44 390.46 C 682.85 390.88 682.26 391.29 681.67 391.68 C 680.55 394.94 677.44 396.82 675.84 399.90 C 665.71 411.69 654.06 423.21 640.96 431.67 C 640.41 431.61 639.93 431.19 639.52 430.41 C 638.74 430.33 637.95 430.27 637.16 430.21 C 637.66 430.73 638.19 431.24 638.76 431.76 C 637.13 431.78 635.84 431.31 634.53 432.60 C 628.33 437.49 621.85 441.72 615.51 446.43 C 614.14 447.36 612.98 446.60 611.54 446.35 C 611.59 447.28 611.47 448.16 611.17 448.98 C 607.05 451.36 602.80 454.09 599.32 457.33 C 598.52 457.42 597.71 457.47 596.90 457.48 C 595.54 457.83 595.20 459.40 593.87 459.65 C 592.07 459.96 591.33 460.97 590.09 462.15 C 587.34 463.28 585.59 465.58 583.00 466.98 C 578.92 469.36 576.45 473.03 571.90 474.86 C 569.32 478.61 565.23 479.94 562.02 483.02 C 548.69 494.02 536.30 505.97 525.68 519.66 C 520.37 527.20 514.88 533.92 510.75 541.86 C 506.56 548.80 504.13 556.32 500.72 563.51 C 500.51 564.33 500.31 565.15 500.10 565.97 C 499.19 565.82 498.28 565.65 497.38 565.46 C 497.37 567.52 500.88 567.93 499.14 570.20 C 498.04 570.73 496.23 569.89 496.27 571.54 C 497.40 570.71 498.29 570.49 498.92 570.89 C 498.74 576.30 497.30 581.44 497.36 586.89 C 496.23 593.79 496.55 601.03 496.78 608.01 C 497.66 613.81 497.29 619.75 498.35 625.49 C 498.85 637.03 498.60 648.47 498.60 660.00 C 498.47 663.46 499.34 667.32 500.50 670.57 C 502.40 672.64 505.02 674.70 508.01 674.18 C 506.49 674.52 504.50 674.19 503.25 675.13 C 500.74 676.72 497.78 676.25 495.01 675.81 C 492.10 675.65 489.30 675.56 486.49 674.69 C 482.36 674.24 478.14 674.74 473.98 674.42 C 473.02 674.44 471.71 673.29 470.87 673.82 C 468.92 670.75 470.20 667.39 470.18 664.00 C 470.53 658.33 470.81 652.68 470.52 646.99 C 469.65 638.03 465.74 629.02 462.63 620.50 C 458.84 609.80 453.89 599.65 450.37 588.89 C 448.73 582.55 446.19 576.42 445.19 570.00 C 443.53 563.08 442.30 556.15 442.60 549.00 C 442.25 544.84 443.77 541.14 443.43 537.00 C 443.65 528.60 445.55 520.05 448.17 512.10 C 449.38 510.02 449.07 507.29 450.26 505.41 C 450.70 505.44 451.14 505.46 451.58 505.47 C 451.22 500.47 453.45 496.60 455.00 491.98 C 459.92 480.39 465.52 469.19 473.04 459.04 C 475.94 455.85 477.87 451.92 481.01 449.01 C 489.98 437.24 498.73 424.32 508.04 413.12 C 511.63 407.69 515.54 402.51 518.82 396.87 C 530.68 378.31 539.74 358.33 547.69 337.83 C 550.88 328.10 553.30 318.17 554.45 308.00 C 554.58 304.10 555.64 300.43 555.67 296.49 C 556.85 292.71 556.52 288.86 557.28 285.00 C 557.75 277.99 558.82 271.18 558.61 264.11 C 559.90 260.37 558.99 256.86 559.28 253.00 C 559.62 246.95 559.23 241.01 560.32 235.00 C 560.25 230.40 560.06 225.49 561.21 221.01 C 561.38 218.39 561.53 215.76 561.66 213.13 C 562.89 209.26 563.09 204.84 563.71 200.83 C 565.00 198.11 565.20 194.96 565.68 191.99 C 566.76 188.72 567.21 185.28 568.27 181.99 C 569.08 177.90 571.01 174.38 572.43 170.51 C 574.31 165.90 575.06 161.07 577.82 156.82 C 579.17 154.80 579.61 150.25 582.02 149.39 C 582.59 150.07 583.10 150.80 583.56 151.58 C 583.88 150.86 584.20 150.14 584.51 149.42 C 583.69 149.39 582.89 149.28 582.10 149.10 C 581.92 147.52 583.51 146.59 583.76 145.00 C 586.29 140.57 589.29 136.34 591.97 131.98 C 599.98 119.51 610.24 110.03 620.42 99.45 C 621.70 97.93 622.91 96.58 625.05 96.53 C 625.56 96.95 626.09 97.30 626.65 97.59 C 626.58 96.35 626.67 95.16 626.92 93.99 C 627.66 94.27 628.38 94.60 629.09 94.96 C 630.08 94.16 630.26 92.46 631.36 91.53 C 631.58 89.69 631.39 89.00 633.37 88.34 C 633.48 87.56 633.60 86.79 633.75 86.02 C 636.03 83.84 637.82 81.20 640.32 79.30 C 643.67 72.72 648.29 68.23 649.70 60.78 C 651.61 58.53 652.81 56.34 652.37 53.31 C 654.21 52.67 654.33 49.92 656.14 50.01 Z" fill="#f55d3c" />
<path d="M 403.77 174.37 C 403.42 175.96 401.99 176.96 401.44 178.52 C 397.52 186.74 396.53 196.50 396.32 205.50 C 395.79 207.41 395.37 208.99 395.68 211.01 C 395.58 216.99 395.43 223.01 395.64 229.00 C 395.75 232.37 396.58 235.61 396.50 239.00 C 396.38 245.43 397.58 251.59 397.78 258.01 C 398.20 265.13 399.09 272.93 397.86 279.99 C 397.42 283.09 397.98 286.64 396.65 289.50 C 395.46 302.97 390.94 316.53 386.17 329.15 C 381.87 339.07 377.98 349.41 372.82 358.90 C 369.22 365.20 365.77 371.52 361.71 377.56 C 358.21 384.42 354.25 391.04 350.90 397.92 C 348.98 400.16 348.27 402.32 345.35 403.42 C 346.74 403.58 347.41 404.10 347.38 404.96 C 345.11 409.74 342.92 414.23 342.37 419.56 C 340.09 425.81 338.84 430.59 337.53 437.01 C 337.62 439.25 336.73 441.04 336.26 443.17 C 336.51 444.93 336.53 445.38 335.59 446.97 C 335.60 448.93 335.63 452.16 333.97 453.52 C 333.35 452.82 332.78 452.01 332.25 451.11 C 332.71 453.17 332.01 455.48 332.51 457.41 C 333.26 457.80 333.88 458.30 334.35 458.91 C 335.63 464.15 336.16 469.66 336.87 474.99 C 338.13 481.06 339.77 487.79 342.37 493.49 C 342.95 496.66 344.61 499.19 345.85 502.10 C 349.51 509.98 353.69 517.66 357.64 525.40 C 362.34 531.09 365.66 537.29 369.58 543.49 C 376.09 552.44 383.71 560.74 392.42 567.60 C 395.70 570.33 398.69 573.33 402.20 575.79 C 415.34 586.70 426.37 599.42 432.62 615.50 C 436.07 622.76 437.31 631.21 438.42 639.11 C 438.78 643.08 438.06 647.40 439.35 651.12 C 439.33 657.42 440.03 663.72 440.11 670.00 C 439.37 676.74 440.11 683.89 438.65 690.50 C 438.09 701.91 438.10 712.58 438.54 724.00 C 438.10 728.61 439.97 732.83 439.60 737.52 C 441.50 742.03 441.56 747.21 443.21 751.85 C 445.36 759.66 448.08 767.11 451.55 774.43 C 458.01 789.37 468.30 802.80 480.33 813.71 C 483.38 815.69 484.60 818.62 488.03 819.82 C 486.57 819.71 485.50 819.48 484.23 818.74 C 477.78 815.60 471.19 812.63 464.98 809.04 C 457.86 804.49 450.39 800.21 443.22 795.74 C 438.63 792.39 434.20 788.71 429.69 785.27 C 427.62 781.64 423.54 780.13 420.98 776.76 C 420.18 776.60 419.36 776.53 418.52 776.57 C 418.85 775.74 418.90 775.00 418.66 774.35 C 417.75 773.93 416.84 773.51 415.95 773.06 C 414.50 769.16 410.38 766.39 407.79 763.19 C 403.74 758.18 399.00 754.00 395.29 748.69 C 392.87 745.99 390.82 742.67 387.99 740.41 C 387.17 740.89 386.33 741.28 385.46 741.59 C 385.27 739.69 387.43 741.24 387.49 739.02 C 375.50 723.00 364.10 706.76 355.28 688.74 C 352.60 683.31 349.25 678.99 347.37 673.16 C 346.77 671.40 345.91 669.71 345.17 668.00 C 343.09 663.26 341.72 657.94 340.05 653.02 C 338.55 648.72 337.21 644.31 336.24 639.87 C 336.48 638.99 337.20 638.46 338.41 638.29 C 338.49 637.65 338.57 637.02 338.64 636.38 C 337.73 637.25 337.36 638.37 336.04 638.58 C 333.32 634.42 332.58 628.58 331.08 623.86 C 329.57 618.65 327.96 613.08 326.42 607.89 C 324.43 598.74 321.14 589.82 318.66 580.98 C 318.89 580.45 319.13 579.92 319.36 579.40 C 317.81 578.20 316.87 576.81 316.45 574.88 C 315.86 571.80 314.35 569.26 314.58 566.10 C 313.74 564.38 312.76 562.84 312.46 560.89 C 312.06 556.75 309.98 553.11 309.23 549.02 C 308.55 545.67 306.63 541.02 307.77 537.76 C 309.29 537.29 310.55 537.67 311.70 536.41 C 309.79 536.15 308.31 538.21 306.82 537.24 C 305.62 534.24 307.20 533.28 309.70 532.36 C 308.21 532.72 306.90 532.68 305.74 532.25 C 301.72 517.69 297.85 502.00 296.02 486.99 C 294.56 482.02 294.41 476.97 293.57 471.90 C 293.40 464.28 292.51 456.60 293.20 449.00 C 293.04 440.77 294.23 432.76 294.69 424.50 C 295.79 421.23 295.55 417.85 296.43 414.53 C 301.67 383.94 310.41 354.10 324.37 326.32 C 328.61 318.04 331.20 308.48 337.28 301.39 C 340.47 294.70 344.23 289.52 348.16 283.09 C 353.61 271.73 359.74 260.85 365.39 249.35 C 367.85 244.96 369.30 240.15 371.75 235.75 C 380.58 218.28 385.34 198.73 396.48 182.51 C 398.40 179.75 400.40 175.51 403.77 174.37 Z" fill="#f55d3c" />
<path d="M 285.51 274.28 C 286.08 278.21 287.64 282.03 287.48 286.00 C 287.45 293.64 288.66 301.40 287.89 309.00 C 287.74 319.08 287.36 328.93 287.38 339.02 C 286.74 345.18 286.56 351.34 286.38 357.52 C 285.44 362.80 285.63 368.10 285.25 373.45 C 283.98 376.25 284.73 379.07 283.88 381.99 C 283.23 384.63 283.77 387.45 282.92 390.00 C 282.23 391.95 282.74 394.20 282.23 396.15 C 281.10 399.27 281.83 402.78 281.01 406.01 C 280.21 409.15 281.03 412.05 279.80 414.99 C 279.43 418.97 279.39 422.90 279.36 426.88 C 278.79 430.27 278.45 433.56 278.77 437.00 C 278.46 450.25 278.94 462.83 280.70 475.98 C 281.01 478.45 280.22 481.31 281.41 483.49 C 281.81 488.07 283.66 492.25 283.52 496.89 C 284.92 500.27 285.43 504.34 286.21 507.99 C 286.06 508.72 285.43 509.22 284.33 509.49 C 284.89 510.52 287.00 510.82 287.35 512.35 C 287.60 517.61 289.93 521.79 290.78 527.00 C 291.13 529.89 292.96 531.68 292.63 534.72 C 290.17 532.91 289.35 530.16 287.36 527.67 C 275.64 507.48 265.70 487.07 261.41 463.92 C 261.77 463.45 262.12 462.99 262.47 462.52 C 261.27 462.42 260.67 461.92 260.66 461.04 C 260.51 456.10 259.27 451.41 258.64 446.53 C 258.37 443.01 258.41 439.47 257.88 436.00 C 257.24 427.66 258.03 419.37 257.80 411.00 C 258.54 404.99 257.92 398.87 259.25 393.01 C 259.67 388.64 260.12 384.07 261.46 379.89 C 261.71 375.73 262.90 371.93 264.25 368.03 C 264.52 364.74 264.97 360.08 267.38 357.60 C 266.27 353.42 269.16 346.42 269.82 342.00 C 273.98 325.29 279.70 309.46 282.51 292.39 C 282.89 291.83 283.55 291.52 284.48 291.48 C 284.11 291.03 283.74 290.57 283.38 290.11 C 284.29 284.80 284.37 279.54 285.51 274.28 Z" fill="#f55d3c" />
<path d="M 730.65 327.48 L 731.52 327.37 C 731.61 330.60 731.37 333.79 731.79 337.01 C 731.90 345.66 731.48 354.34 731.34 363.00 C 731.46 365.74 730.46 368.23 730.70 371.00 C 730.96 376.27 728.57 380.79 728.58 386.01 C 728.56 390.96 726.19 395.18 725.29 400.51 C 718.22 419.85 710.97 440.64 704.26 460.18 C 702.89 463.41 701.72 466.56 701.00 470.00 C 700.11 473.98 698.15 477.60 697.49 481.61 C 696.97 482.12 696.29 482.47 695.45 482.66 C 695.42 483.35 695.76 484.13 696.49 484.99 C 695.41 487.22 694.57 489.22 694.61 491.75 L 694.01 492.17 C 693.20 491.71 692.76 490.70 692.70 489.16 C 691.75 489.10 691.63 491.10 691.33 491.80 C 692.12 492.24 692.92 492.68 693.73 493.09 C 693.60 496.71 692.15 500.47 691.50 504.01 C 691.51 506.80 690.04 509.21 689.66 512.00 C 689.56 514.51 688.20 516.53 687.86 518.99 C 687.29 520.98 687.74 523.05 687.21 525.02 C 686.35 522.97 686.27 520.97 687.46 519.03 C 687.37 517.02 688.01 515.59 688.67 513.76 C 689.35 509.91 689.48 505.89 689.63 501.98 C 689.84 499.91 688.53 498.62 687.31 497.13 C 684.48 505.08 682.66 513.30 679.09 520.99 C 679.99 517.63 679.29 514.51 679.51 511.00 C 679.32 508.25 680.12 505.71 679.33 503.02 C 679.97 492.09 678.84 480.92 678.20 469.99 C 677.21 462.82 677.22 455.65 675.65 448.51 C 675.38 443.27 674.50 438.15 673.55 433.00 C 673.17 430.42 675.93 428.21 677.50 426.51 C 679.30 424.00 681.03 421.49 683.27 419.33 C 685.83 414.22 689.81 409.81 693.02 405.13 C 696.01 399.85 699.82 395.03 702.64 389.66 C 709.50 377.54 715.75 364.98 721.16 352.15 C 724.34 343.91 728.04 335.93 730.65 327.48 Z" fill="#f55d3c" />
<path d="M 687.31 497.13 C 688.53 498.62 689.84 499.91 689.63 501.98 C 689.48 505.89 689.35 509.91 688.67 513.76 C 688.01 515.59 687.37 517.02 687.46 519.03 C 686.27 520.97 686.35 522.97 687.21 525.02 C 684.35 537.99 680.79 554.24 677.68 567.00 C 677.01 570.74 676.46 574.18 676.23 578.01 C 676.26 581.15 674.80 583.84 675.32 587.04 C 674.30 589.68 675.00 592.28 674.27 595.01 C 674.21 598.09 673.50 601.07 673.24 604.16 C 672.16 606.41 672.61 608.65 672.23 611.03 C 670.93 615.63 671.04 620.43 670.23 625.16 C 669.25 627.14 668.74 629.00 668.22 631.12 C 667.55 630.91 666.88 630.72 666.20 630.55 C 666.49 631.16 667.08 631.58 667.98 631.80 C 667.78 634.67 667.68 637.41 666.67 640.12 C 666.56 644.54 665.05 648.60 664.69 652.98 C 663.82 653.64 662.85 653.51 662.23 654.53 L 663.96 654.89 C 663.65 657.94 662.09 660.93 661.58 664.01 C 659.77 670.79 659.58 677.80 656.59 684.49 C 655.69 689.45 653.28 694.10 651.64 698.86 C 648.29 706.51 645.88 714.04 642.56 721.48 C 639.72 730.31 635.57 738.94 633.32 748.02 C 627.90 760.43 626.96 772.63 619.76 784.76 C 618.10 787.76 617.22 791.73 614.56 794.57 C 612.82 795.94 613.22 799.33 610.97 799.93 C 610.38 799.44 609.80 798.95 609.21 798.46 C 609.69 799.68 611.41 800.50 610.81 801.90 C 609.33 805.71 606.58 809.20 604.73 812.85 C 602.44 817.34 599.10 821.18 596.54 825.54 C 595.22 827.87 592.75 828.30 592.71 830.89 C 591.20 833.12 588.48 836.77 586.99 839.23 C 586.35 839.73 585.52 839.86 584.50 839.60 C 584.69 840.34 584.83 841.09 584.90 841.84 C 580.83 846.80 577.12 851.99 572.57 856.55 C 565.75 864.38 558.81 872.11 551.44 879.43 C 547.16 883.20 543.60 887.52 539.63 891.62 C 537.02 894.66 534.13 897.35 531.74 900.56 C 531.14 900.38 530.56 900.15 530.00 899.87 C 528.84 901.16 528.28 901.88 526.74 902.79 C 524.92 905.45 522.83 908.42 521.07 911.04 C 521.20 911.80 521.35 912.55 521.49 913.31 C 518.37 913.81 518.89 916.16 516.99 918.01 C 515.49 919.62 516.22 921.58 514.39 922.80 C 514.54 921.81 514.47 920.90 514.16 920.07 L 513.21 920.18 C 512.45 923.02 511.28 925.47 510.08 928.16 C 508.76 930.64 510.66 932.75 508.40 934.69 C 508.72 931.95 509.77 929.88 509.39 926.98 C 511.72 918.48 511.19 908.70 512.15 900.00 C 512.70 890.11 512.56 880.57 509.66 871.00 C 506.98 859.54 501.29 849.80 494.99 840.01 C 492.80 836.86 490.06 834.32 487.31 831.69 C 483.30 827.83 479.44 823.24 474.73 820.26 C 463.96 813.09 453.59 805.16 442.51 798.49 C 434.27 792.82 426.33 786.81 419.00 779.99 C 411.90 772.72 404.11 766.26 397.48 758.51 C 393.90 754.08 389.87 750.09 386.39 745.59 C 376.93 733.18 367.70 721.23 360.87 707.09 C 356.61 699.35 353.38 691.19 349.96 683.06 C 349.07 680.28 347.50 677.97 347.34 674.98 C 346.52 672.66 345.69 670.41 345.17 668.00 C 345.91 669.71 346.77 671.40 347.37 673.16 C 349.25 678.99 352.60 683.31 355.28 688.74 C 364.10 706.76 375.50 723.00 387.49 739.02 C 387.43 741.24 385.27 739.69 385.46 741.59 C 386.33 741.28 387.17 740.89 387.99 740.41 C 390.82 742.67 392.87 745.99 395.29 748.69 C 399.00 754.00 403.74 758.18 407.79 763.19 C 410.38 766.39 414.50 769.16 415.95 773.06 C 416.84 773.51 417.75 773.93 418.66 774.35 C 418.90 775.00 418.85 775.74 418.52 776.57 C 419.36 776.53 420.18 776.60 420.98 776.76 C 423.54 780.13 427.62 781.64 429.69 785.27 C 434.20 788.71 438.63 792.39 443.22 795.74 C 450.39 800.21 457.86 804.49 464.98 809.04 C 471.19 812.63 477.78 815.60 484.23 818.74 C 485.50 819.48 486.57 819.71 488.03 819.82 C 492.94 821.64 496.50 824.78 501.99 825.12 C 507.55 825.24 514.22 826.60 519.52 824.67 C 525.10 823.29 530.48 821.24 535.45 818.32 C 541.72 815.11 547.64 811.44 553.36 807.34 C 566.53 797.89 579.31 788.05 591.07 776.87 L 592.09 776.58 C 593.53 778.05 593.57 778.71 593.46 780.71 C 593.80 780.39 594.11 780.05 594.38 779.68 C 593.81 778.22 592.76 776.65 592.75 775.07 C 596.85 771.79 600.29 767.72 604.06 764.05 C 609.73 758.60 614.49 752.41 619.18 746.13 C 627.07 734.55 633.31 721.75 638.93 708.93 C 640.74 703.85 642.95 698.93 644.74 693.84 C 651.42 677.24 655.01 660.14 658.78 642.86 C 660.58 634.74 661.80 626.16 663.52 618.02 C 664.35 610.74 665.62 603.27 666.44 596.02 C 667.73 586.35 670.02 576.71 671.52 567.11 C 673.28 558.49 673.39 549.70 675.43 541.11 C 677.08 534.46 677.68 527.59 679.09 520.99 C 682.66 513.30 684.48 505.08 687.31 497.13 Z" fill="#363a3a" />
<path d="M 640.99 498.30 C 642.61 498.03 645.24 498.37 643.49 500.52 C 641.38 502.17 638.66 503.16 635.99 503.40 C 630.60 503.95 625.21 506.44 620.12 508.26 C 613.42 510.58 607.31 513.83 601.05 517.06 C 586.41 525.25 572.67 534.93 560.51 546.51 C 556.20 550.99 552.52 555.88 548.82 560.84 C 547.17 561.51 545.71 559.25 544.81 558.17 C 541.74 554.53 541.53 549.51 542.15 545.01 C 541.64 537.65 545.26 531.36 550.76 526.75 C 556.00 522.49 561.72 518.68 567.80 515.74 C 581.70 509.58 595.94 506.40 610.87 502.78 C 620.85 500.82 630.87 499.28 640.99 498.30 Z" fill="#363a3a" />
<path d="M 624.99 543.18 C 626.97 542.97 628.98 543.92 630.99 543.99 C 637.13 544.07 642.82 546.10 649.01 545.72 C 652.04 545.83 654.23 544.18 657.03 543.52 C 659.20 544.41 658.27 545.87 656.71 546.68 C 651.66 548.79 646.61 550.32 641.10 550.59 C 633.89 551.93 626.62 551.77 619.36 552.44 C 621.83 558.30 622.06 565.56 619.45 571.45 C 618.79 573.37 615.77 575.03 616.03 577.03 L 617.01 577.27 C 622.51 574.62 628.52 573.66 634.11 571.24 C 635.23 570.87 636.54 570.03 637.74 570.22 C 637.41 571.20 635.98 571.70 635.15 572.20 C 628.89 575.03 622.47 577.65 616.00 579.95 C 610.20 581.59 603.99 583.92 598.00 583.94 C 592.51 584.21 587.35 583.06 582.05 581.82 C 582.17 580.69 582.36 579.57 582.54 578.44 C 581.69 578.65 580.84 578.85 579.98 579.04 C 579.14 575.88 579.01 572.34 578.88 569.07 C 576.90 569.24 570.39 570.19 572.60 573.49 C 574.05 577.58 577.43 578.72 581.25 579.79 L 581.21 581.08 C 578.01 581.47 574.18 578.84 571.16 577.74 C 567.42 575.90 563.19 575.35 559.52 573.49 C 557.83 571.55 559.19 569.97 560.93 568.84 C 567.17 565.13 572.78 560.62 579.22 557.24 C 593.17 549.21 609.20 545.51 624.99 543.18 Z" fill="#363a3a"/>
<path d="M 533.88 659.80 C 534.73 659.18 535.60 659.42 536.50 660.51 C 539.04 664.59 540.81 669.74 540.55 674.58 C 539.22 677.09 537.09 679.03 535.65 681.42 C 534.06 681.31 533.53 680.88 533.00 679.38 C 532.14 681.20 531.51 681.78 529.44 681.73 C 530.47 683.65 529.30 684.45 527.45 684.66 L 527.37 685.66 C 528.77 685.77 530.06 683.70 530.46 682.56 C 532.53 681.60 532.92 681.12 533.56 683.64 C 531.64 685.00 530.14 686.85 528.16 688.17 C 524.40 690.78 522.01 694.00 517.03 693.89 C 516.71 693.03 516.25 692.52 515.65 692.37 C 515.85 693.42 515.72 694.32 515.24 695.07 C 510.46 696.35 505.95 693.61 502.19 690.98 C 503.34 689.68 503.51 688.96 503.63 687.27 C 502.37 688.01 502.50 689.03 502.21 690.32 L 501.08 690.49 C 494.58 685.58 487.16 681.88 480.08 677.88 C 476.74 676.36 472.92 677.61 470.87 673.82 C 471.71 673.29 473.02 674.44 473.98 674.42 C 478.14 674.74 482.36 674.24 486.49 674.69 C 489.30 675.56 492.10 675.65 495.01 675.81 C 497.78 676.25 500.74 676.72 503.25 675.13 C 504.50 674.19 506.49 674.52 508.01 674.18 C 517.36 673.19 525.96 671.38 533.73 665.78 C 534.82 663.62 533.26 661.91 533.88 659.80 Z" fill="#363a3a" />
<path d="M 531.01 718.02 C 538.34 719.00 544.90 721.57 551.98 723.16 C 556.15 723.69 561.58 723.73 565.08 721.05 C 567.44 719.14 569.30 722.95 567.60 724.65 C 563.68 727.91 558.87 728.10 554.00 728.19 C 545.22 727.45 536.90 725.59 527.99 725.80 C 524.59 726.11 521.14 727.72 517.85 728.78 C 514.85 729.82 511.24 731.98 507.99 731.54 C 502.57 730.47 497.57 727.43 492.10 726.57 C 482.78 724.68 473.14 724.98 464.14 728.22 C 460.23 729.59 455.21 731.12 451.49 728.48 C 449.96 727.50 449.97 725.85 450.26 724.23 C 451.71 723.11 454.27 725.24 455.98 725.21 C 463.36 724.70 470.52 719.88 477.99 719.43 C 485.90 718.96 493.77 719.77 501.13 722.86 C 503.63 723.65 506.93 725.26 509.54 724.50 C 513.61 722.94 517.65 721.24 521.71 719.64 C 524.53 718.40 527.94 717.46 531.01 718.02 Z" fill="#363a3a" />
<path d="M 551.11 740.47 C 552.48 740.25 553.77 740.06 554.78 741.21 C 556.27 742.63 554.67 743.71 553.55 744.57 C 549.94 747.18 545.97 749.54 542.46 752.45 C 536.70 757.41 530.24 761.52 523.14 764.26 C 515.38 768.39 505.43 768.10 497.58 764.42 C 486.74 758.21 476.71 750.60 466.29 743.72 C 464.68 742.05 465.92 740.44 467.99 740.49 C 473.06 741.03 477.98 743.09 483.00 744.01 C 492.57 746.05 502.05 750.68 512.01 749.21 C 519.09 747.73 525.91 745.32 533.01 743.95 C 539.01 742.54 545.04 741.44 551.11 740.47 Z" fill="#363a3a" />
</svg>
